<?xml version="1.0" standalone="yes"?>
<svg xmlns="http://www.w3.org/2000/svg" width="200" height="200">
<path style="fill:#f9f8f8; stroke:none;" d="M0 0L0 200L200 200L200 0L0 0z"/>
<path style="fill:#c3b0b0; stroke:none;" d="M94 4L94 5L106 5L94 4z"/>
<path style="fill:#f6ce36; stroke:none;" d="M90 6L90 7L92 8C87.8196 12.1376 86.201 39.3007 90.7029 44.1011C95.7049 49.4346 109.932 48.2368 110.891 39.9807C111.537 34.4217 110.902 28.5825 110.845 23C110.783 16.9793 110.161 11.8095 109 6L90 6z"/>
<path style="fill:#c3b0b0; stroke:none;" d="M109 6L110 9L109 6M90 7L90 9L92 7L90 7M87 10L87 43L89 43L89 10L87 10M111 10L111 43L113 43L113 10L111 10M90 47L94 47C92.4444 45.1871 91.5556 45.1871 90 47M106 47L110 47C108.444 45.1871 107.556 45.1871 106 47z"/>
<path style="fill:#f6ce36; stroke:none;" d="M91 46L92 47L91 46M108 46L109 47L108 46z"/>
<path style="fill:#c3b0b0; stroke:none;" d="M40 123L56 121L56 120C51.5296 120 45.2899 121.105 41.1883 119.062C31.2513 114.112 36.5794 91.7071 36.9606 83C37.3826 73.3646 33.1014 57.2615 47.0008 57.0046C73.3137 56.5184 99.682 57 126 57C134.777 57 150.83 53.8993 158.695 57.9383C167.177 62.2939 162.872 74.7285 163.015 82C163.191 90.9144 169.013 113.981 158.812 119.062C154.71 121.105 148.47 120 144 120L144 121L145 123L160 123L164 119L163 117C167.647 113.649 166 106.21 166 101C166 87.4514 165.018 73.4961 166 60C155.001 54.4748 143.303 56 131 56L69 56C61.1553 56 44.1468 52.8168 37.7292 57.8187C32.4291 61.9496 34 70.1276 34 76C34 87.282 30.854 104.05 34.5494 114.71C35.6388 117.853 38.5117 120.065 40 123z"/>
<path style="fill:#fa5858; stroke:none;" d="M40 57L41 58L40 57z"/>
<path style="fill:#f11b1b; stroke:none;" d="M40 60L88 60L100 66L110 67L110 68L108 68L108 69L132 74L132 75C127.014 76.3409 111.035 75.1719 110 80C115.893 78.9059 134.174 75.8966 138.682 80.8727C140.83 83.2436 140 88.0766 140 91L140 116L144 120L160 120L160 116L163 116C163 98.0559 167.344 73.4118 160 57L70 57C63.3912 57 43.522 54.5683 40 60z"/>
<path style="fill:#fa5858; stroke:none;" d="M48 57L48 58L56 58L48 57M37 86L57 90L57 77L60 80L89 80L89 113L90 113L90 93L110 93C110.002 76.4598 122.934 80 136 80L136 79L110 80C113.44 74.6935 125.986 76.9019 132 75L132 74L108 69L108 68L110 68L110 67L100 66C99.5069 62.6977 90.3703 60.3678 87 60.0648C75.1961 59.0038 62.8543 60 51 60C47.867 60 41.1463 58.5355 38.4769 60.1991C34.3977 62.7413 37 81.3948 37 86M160 59L161 60L160 59M162 60L163 61L162 60M163 64L163 75L164 75L163 64z"/>
<path style="fill:#f11b1b; stroke:none;" d="M57 77L57 90L37 86L40 120L56 120L60 116L61 78L57 77M89 78L90 79L89 78z"/>
<path style="fill:#fa5858; stroke:none;" d="M137 79L138 80L137 79z"/>
<path style="fill:#c3b0b0; stroke:none;" d="M60 80L60 84L64 80L60 80M86 80L87 117L90 117L89 80L86 80M113 80C106.698 86.6757 110.402 108.637 110 118C115.497 114.035 114.994 86.483 113 80M136 80L140 84L140 80L136 80z"/>
<path style="fill:#fa5858; stroke:none;" d="M144 80L144 90L157 85L157 84L147 80L144 80M36 87L36 114L37 114L36 87M163 87L163 114L164 114L163 87z"/>
<path style="fill:#f11b1b; stroke:none;" d="M90 93C90 99.6806 87.8866 110.658 90.7423 116.772C92.9279 121.45 106.148 121.67 108.972 117.566C112.519 112.413 110 99.1359 110 93L90 93z"/>
<path style="fill:#fa5858; stroke:none;" d="M110 94L110 113L111 113L110 94z"/>
<path style="fill:#f6ce36; stroke:none;" d="M139 112L140 113L139 112z"/>
<path style="fill:#fa5858; stroke:none;" d="M37 115L39 119L40 119L37 115M56 120L57 120L60 117L56 120M140 116L140 117L143 120L144 120L140 116M160 119L161 119L163 117C160.86 115.882 160.473 116.749 160 119z"/>
<path style="fill:#c3b0b0; stroke:none;" d="M57 117L57 120L60 120L60 117L57 117z"/>
<path style="fill:#fa5858; stroke:none;" d="M90 117L93 120L93 119L90 117z"/>
<path style="fill:#c3b0b0; stroke:none;" d="M140 117L140 120L143 120L143 117L140 117z"/>
<path style="fill:#fa5858; stroke:none;" d="M109 118L107 119L107 120L109 118z"/>
<path style="fill:#c3b0b0; stroke:none;" d="M93 120C95.8225 124.354 104.178 124.354 107 120L93 120z"/>
<path style="fill:#f9f8f8; stroke:none;" d="M41 121L42 122L41 121z"/>
<path style="fill:#c3b0b0; stroke:none;" d="M87 190L90 190L90 194L94 194L93 196L107 196L106 194L110 194L110 190L113 190C113 183.054 109.548 162.659 114.603 157.603C117.337 154.869 123.497 156 127 156C140.869 156 164 161.184 164 142C164 137.918 163.51 134.036 163 130L78 130C66.8482 130 50.7596 127.016 40.1474 130.434C34.5251 132.244 34.8125 146.367 36.8935 150.722C38.946 155.018 45.8358 155.925 50 155.995C58.4221 156.137 77.6148 152.312 84.6821 157.028C90.4552 160.88 87 183.508 87 190z"/>
<path style="fill:#f9f8f8; stroke:none;" d="M38.6667 132.333L39.3333 132.667L38.6667 132.333M160 132L161 133L160 132z"/>
</svg>
